<svg width="24" height="24" viewBox="0 0 24 24" fill="none" xmlns="http://www.w3.org/2000/svg">
<g clip-path="url(#clip0_7_710)">
<path d="M8.74688 3.45937C8.68607 3.42219 8.63713 3.36846 8.60576 3.30446C8.5744 3.24046 8.56192 3.16886 8.5698 3.09803C8.57767 3.02719 8.60556 2.96007 8.6502 2.90452C8.69485 2.84897 8.7544 2.80729 8.82188 2.78437C10.1883 2.31167 11.6429 2.14971 13.0798 2.31027C14.5167 2.47083 15.8998 2.94986 17.1281 3.71249C17.1738 3.73977 17.2132 3.77646 17.2436 3.82013C17.274 3.8638 17.2948 3.91345 17.3046 3.96577C17.3143 4.01809 17.3128 4.07189 17.3002 4.12359C17.2876 4.17529 17.2641 4.2237 17.2313 4.26562C16.1412 5.6488 14.8105 6.82388 13.3031 7.73437C12.0832 6.02107 10.5343 4.56782 8.74688 3.45937V3.45937ZM11.9625 8.43749C10.5899 6.57255 8.78939 5.06462 6.7125 4.04062C6.65118 4.01284 6.58388 4.00086 6.51673 4.00577C6.44959 4.01068 6.38475 4.03233 6.32813 4.06874C4.64769 5.27907 3.39134 6.98811 2.7375 8.95312C2.72203 9.00299 2.71715 9.05555 2.72316 9.10742C2.72918 9.15929 2.74596 9.20934 2.77244 9.25435C2.79892 9.29936 2.8345 9.33834 2.87692 9.3688C2.91933 9.39927 2.96764 9.42053 3.01875 9.43124C3.99843 9.64266 4.99777 9.7495 6 9.74999C8.05944 9.75259 10.0945 9.30462 11.9625 8.43749V8.43749ZM21.6937 10.9406C21.454 8.76605 20.4898 6.73531 18.9562 5.17499C18.9184 5.13811 18.8733 5.10944 18.8239 5.09077C18.7744 5.07209 18.7217 5.06381 18.6689 5.06645C18.6161 5.06909 18.5644 5.08259 18.5171 5.10611C18.4697 5.12962 18.4277 5.16265 18.3937 5.20312C17.2082 6.71604 15.7563 7.99962 14.1094 8.99062C14.6231 9.88205 15.05 10.8207 15.3844 11.7937C16.7261 11.4309 18.1101 11.2481 19.5 11.25C20.0952 11.2514 20.6899 11.2858 21.2812 11.3531C21.3369 11.359 21.3931 11.3524 21.4458 11.3338C21.4986 11.3151 21.5465 11.2849 21.586 11.2454C21.6256 11.2058 21.6558 11.1579 21.6744 11.1052C21.693 11.0525 21.6997 10.9962 21.6937 10.9406V10.9406ZM15.7969 13.2375C16.0723 14.4208 16.2107 15.6319 16.2094 16.8469C16.2087 18.0075 16.0798 19.1645 15.825 20.2969C15.8083 20.3665 15.8119 20.4395 15.8353 20.5071C15.8588 20.5748 15.9011 20.6343 15.9573 20.6787C16.0135 20.7231 16.0812 20.7504 16.1525 20.7575C16.2237 20.7646 16.2955 20.7512 16.3594 20.7187C17.7819 20.0072 19.009 18.9588 19.9339 17.6647C20.8587 16.3706 21.4532 14.8701 21.6656 13.2937C21.6722 13.2444 21.6689 13.1943 21.6559 13.1463C21.6429 13.0983 21.6204 13.0534 21.5899 13.0141C21.5594 12.9748 21.5213 12.942 21.478 12.9176C21.4347 12.8932 21.3869 12.8777 21.3375 12.8719C20.7286 12.7887 20.1146 12.7479 19.5 12.75C18.2495 12.7484 17.0043 12.9124 15.7969 13.2375V13.2375ZM13.95 12.2625C13.6529 11.3741 13.2633 10.5194 12.7875 9.71249C10.6688 10.7271 8.34913 11.2526 6 11.25C4.90023 11.2494 3.80357 11.1331 2.72813 10.9031C2.67603 10.8923 2.62223 10.8927 2.57031 10.9043C2.51838 10.9159 2.46951 10.9384 2.42695 10.9703C2.38439 11.0022 2.3491 11.0428 2.32344 11.0894C2.29779 11.136 2.28234 11.1876 2.27813 11.2406C2.25938 11.4906 2.25 11.7437 2.25 12C2.24952 13.3349 2.52397 14.6556 3.05623 15.8798C3.5885 17.104 4.36718 18.2055 5.34375 19.1156C5.38399 19.1543 5.43255 19.1832 5.4857 19.2002C5.53884 19.2172 5.59517 19.2218 5.65037 19.2136C5.70557 19.2055 5.75817 19.1848 5.80415 19.1532C5.85013 19.1216 5.88826 19.0799 5.91563 19.0312C7.74485 15.9259 10.5792 13.538 13.95 12.2625V12.2625ZM7.09688 19.9875C7.07186 20.0305 7.05565 20.078 7.04919 20.1273C7.04272 20.1767 7.04613 20.2268 7.05922 20.2748C7.0723 20.3227 7.09481 20.3676 7.12541 20.4068C7.15602 20.4461 7.19412 20.4788 7.2375 20.5031C8.69045 21.3236 10.3314 21.7532 12 21.75C12.569 21.7525 13.1371 21.7023 13.6969 21.6C13.7617 21.5892 13.8222 21.5608 13.8719 21.5178C13.9215 21.4747 13.9583 21.4189 13.9781 21.3562C14.4644 19.9026 14.7114 18.3797 14.7094 16.8469C14.7088 15.7905 14.5925 14.7373 14.3625 13.7062C11.2916 14.9042 8.7262 17.122 7.09688 19.9875V19.9875Z" fill="#292929"/>
</g>
<defs>
<clipPath id="clip0_7_710">
<rect width="24" height="24" fill="white"/>
</clipPath>
</defs>
</svg>
