<svg width="248" height="24" viewBox="0 0 248 24" fill="none" xmlns="http://www.w3.org/2000/svg">
<g clip-path="url(#clip0_7_703)">
<path d="M23.0344 7.28437L20.2031 10.1062C19.6406 16.6594 14.1094 21.75 7.50001 21.75C6.14063 21.75 5.01563 21.5344 4.16251 21.1125C3.47813 20.7656 3.19688 20.4 3.12188 20.2875C3.05983 20.1932 3.01984 20.0862 3.0049 19.9744C2.98996 19.8625 3.00046 19.7487 3.0356 19.6415C3.07074 19.5343 3.12963 19.4363 3.20788 19.355C3.28612 19.2737 3.3817 19.2111 3.48751 19.1719C3.50626 19.1625 5.71876 18.3187 7.15313 16.6969C6.26358 16.0635 5.48171 15.2911 4.83751 14.4094C3.55313 12.6656 2.19376 9.6375 3.00938 5.11875C3.03502 4.98441 3.09646 4.85949 3.18722 4.75718C3.27798 4.65487 3.39468 4.57897 3.52501 4.5375C3.65574 4.49469 3.79574 4.48866 3.92967 4.52008C4.0636 4.55149 4.18632 4.61914 4.28438 4.71562C4.31251 4.75312 7.43438 7.82812 11.25 8.82187V8.25C11.2537 7.65535 11.3745 7.06725 11.6054 6.51928C11.8364 5.97132 12.173 5.47421 12.5961 5.05634C13.0192 4.63847 13.5205 4.30804 14.0713 4.08389C14.6221 3.85975 15.2116 3.74629 15.8063 3.75C16.5867 3.76113 17.351 3.97423 18.0246 4.36854C18.6982 4.76285 19.2582 5.32492 19.65 6H22.5C22.6481 5.99953 22.793 6.04291 22.9164 6.12466C23.0399 6.20641 23.1364 6.32287 23.1938 6.45937C23.2478 6.5979 23.2615 6.74891 23.2333 6.8949C23.2051 7.0409 23.1361 7.17593 23.0344 7.28437Z" fill="#292929"/>
</g>
<g clip-path="url(#clip1_7_703)">
<path d="M73.4938 8.8125C74.1668 8.32443 74.668 7.63587 74.9257 6.84546C75.1834 6.05506 75.1843 5.20337 74.9282 4.41243C74.6722 3.62148 74.1724 2.93187 73.5005 2.44238C72.8285 1.95288 72.0189 1.68864 71.1875 1.6875H64.8125C63.9812 1.68864 63.1715 1.95288 62.4995 2.44238C61.8276 2.93187 61.3278 3.62148 61.0718 4.41243C60.8157 5.20337 60.8166 6.05506 61.0743 6.84546C61.332 7.63587 61.8333 8.32443 62.5063 8.8125C62.001 9.17639 61.5895 9.65518 61.3056 10.2094C61.0218 10.7636 60.8738 11.3773 60.8738 12C60.8738 12.6227 61.0218 13.2364 61.3056 13.7906C61.5895 14.3448 62.001 14.8236 62.5063 15.1875C61.9597 15.5824 61.5238 16.1111 61.2402 16.7229C60.9566 17.3346 60.8349 18.009 60.8866 18.6813C60.9384 19.3536 61.162 20.0013 61.5359 20.5625C61.9098 21.1236 62.4216 21.5793 63.0222 21.8859C63.6227 22.1924 64.292 22.3397 64.9658 22.3134C65.6395 22.2872 66.2953 22.0883 66.8702 21.736C67.4451 21.3836 67.9199 20.8895 68.249 20.301C68.5782 19.7125 68.7507 19.0493 68.75 18.375V15.0844C69.1587 15.4292 69.6334 15.6872 70.145 15.8426C70.6567 15.998 71.1947 16.0475 71.7261 15.9882C72.2576 15.9288 72.7713 15.7619 73.2361 15.4975C73.7009 15.233 74.107 14.8767 74.4296 14.4502C74.7522 14.0237 74.9845 13.536 75.1124 13.0168C75.2403 12.4976 75.2611 11.9577 75.1735 11.4302C75.086 10.9027 74.8919 10.3985 74.6031 9.94846C74.3143 9.49841 73.9368 9.1119 73.4938 8.8125ZM73.625 5.625C73.6225 6.27071 73.3649 6.88926 72.9083 7.34584C72.4518 7.80243 71.8332 8.06003 71.1875 8.0625H68.75V3.1875H71.1875C71.8332 3.18997 72.4518 3.44757 72.9083 3.90416C73.3649 4.36074 73.6225 4.9793 73.625 5.625ZM71.1875 14.4375C70.541 14.4375 69.9211 14.1807 69.4639 13.7236C69.0068 13.2665 68.75 12.6465 68.75 12C68.75 11.3535 69.0068 10.7335 69.4639 10.2764C69.9211 9.81931 70.541 9.5625 71.1875 9.5625C71.834 9.5625 72.454 9.81931 72.9111 10.2764C73.3682 10.7335 73.625 11.3535 73.625 12C73.625 12.6465 73.3682 13.2665 72.9111 13.7236C72.454 14.1807 71.834 14.4375 71.1875 14.4375Z" fill="#292929"/>
</g>
<g clip-path="url(#clip2_7_703)">
<path d="M120.747 3.45937C120.686 3.42219 120.637 3.36846 120.606 3.30446C120.574 3.24046 120.562 3.16886 120.57 3.09803C120.578 3.02719 120.606 2.96007 120.65 2.90452C120.695 2.84897 120.754 2.80729 120.822 2.78437C122.188 2.31167 123.643 2.14971 125.08 2.31027C126.517 2.47083 127.9 2.94986 129.128 3.71249C129.174 3.73977 129.213 3.77646 129.244 3.82013C129.274 3.8638 129.295 3.91345 129.305 3.96577C129.314 4.01809 129.313 4.07189 129.3 4.12359C129.288 4.17529 129.264 4.2237 129.231 4.26562C128.141 5.6488 126.811 6.82388 125.303 7.73437C124.083 6.02107 122.534 4.56782 120.747 3.45937ZM123.963 8.43749C122.59 6.57255 120.789 5.06462 118.713 4.04062C118.651 4.01284 118.584 4.00086 118.517 4.00577C118.45 4.01068 118.385 4.03233 118.328 4.06874C116.648 5.27907 115.391 6.98811 114.738 8.95312C114.722 9.00299 114.717 9.05555 114.723 9.10742C114.729 9.15929 114.746 9.20934 114.772 9.25435C114.799 9.29936 114.835 9.33834 114.877 9.3688C114.919 9.39927 114.968 9.42053 115.019 9.43124C115.998 9.64266 116.998 9.7495 118 9.74999C120.059 9.75259 122.095 9.30462 123.963 8.43749ZM133.694 10.9406C133.454 8.76605 132.49 6.73531 130.956 5.17499C130.918 5.13811 130.873 5.10944 130.824 5.09077C130.774 5.07209 130.722 5.06381 130.669 5.06645C130.616 5.06909 130.564 5.08259 130.517 5.10611C130.47 5.12962 130.428 5.16265 130.394 5.20312C129.208 6.71604 127.756 7.99962 126.109 8.99062C126.623 9.88205 127.05 10.8207 127.384 11.7937C128.726 11.4309 130.11 11.2481 131.5 11.25C132.095 11.2514 132.69 11.2858 133.281 11.3531C133.337 11.359 133.393 11.3524 133.446 11.3338C133.499 11.3151 133.546 11.2849 133.586 11.2454C133.626 11.2058 133.656 11.1579 133.674 11.1052C133.693 11.0525 133.7 10.9962 133.694 10.9406ZM127.797 13.2375C128.072 14.4208 128.211 15.6319 128.209 16.8469C128.209 18.0075 128.08 19.1645 127.825 20.2969C127.808 20.3665 127.812 20.4395 127.835 20.5071C127.859 20.5748 127.901 20.6343 127.957 20.6787C128.013 20.7231 128.081 20.7504 128.152 20.7575C128.224 20.7646 128.296 20.7512 128.359 20.7187C129.782 20.0072 131.009 18.9588 131.934 17.6647C132.859 16.3706 133.453 14.8701 133.666 13.2937C133.672 13.2444 133.669 13.1943 133.656 13.1463C133.643 13.0983 133.62 13.0534 133.59 13.0141C133.559 12.9748 133.521 12.942 133.478 12.9176C133.435 12.8932 133.387 12.8777 133.338 12.8719C132.729 12.7887 132.115 12.7479 131.5 12.75C130.25 12.7484 129.004 12.9124 127.797 13.2375ZM125.95 12.2625C125.653 11.3741 125.263 10.5194 124.788 9.71249C122.669 10.7271 120.349 11.2526 118 11.25C116.9 11.2494 115.804 11.1331 114.728 10.9031C114.676 10.8923 114.622 10.8927 114.57 10.9043C114.518 10.9159 114.47 10.9384 114.427 10.9703C114.384 11.0022 114.349 11.0428 114.323 11.0894C114.298 11.136 114.282 11.1876 114.278 11.2406C114.259 11.4906 114.25 11.7437 114.25 12C114.25 13.3349 114.524 14.6556 115.056 15.8798C115.588 17.104 116.367 18.2055 117.344 19.1156C117.384 19.1543 117.433 19.1832 117.486 19.2002C117.539 19.2172 117.595 19.2218 117.65 19.2136C117.706 19.2055 117.758 19.1848 117.804 19.1532C117.85 19.1216 117.888 19.0799 117.916 19.0312C119.745 15.9259 122.579 13.538 125.95 12.2625ZM119.097 19.9875C119.072 20.0305 119.056 20.078 119.049 20.1273C119.043 20.1767 119.046 20.2268 119.059 20.2748C119.072 20.3227 119.095 20.3676 119.125 20.4068C119.156 20.4461 119.194 20.4788 119.238 20.5031C120.69 21.3236 122.331 21.7532 124 21.75C124.569 21.7525 125.137 21.7023 125.697 21.6C125.762 21.5892 125.822 21.5608 125.872 21.5178C125.921 21.4747 125.958 21.4188 125.978 21.3562C126.464 19.9026 126.711 18.3797 126.709 16.8469C126.709 15.7905 126.593 14.7373 126.362 13.7062C123.292 14.9042 120.726 17.122 119.097 19.9875Z" fill="#292929"/>
</g>
<g clip-path="url(#clip3_7_703)">
<path d="M189 21C189 21.1989 188.921 21.3897 188.78 21.5303C188.64 21.671 188.449 21.75 188.25 21.75C187.455 21.7475 186.693 21.4307 186.131 20.8686C185.569 20.3065 185.252 19.5449 185.25 18.75V18C185.25 17.6022 185.092 17.2206 184.811 16.9393C184.529 16.658 184.148 16.5 183.75 16.5H182.625V20.25C182.625 20.6478 182.783 21.0294 183.064 21.3107C183.346 21.592 183.727 21.75 184.125 21.75C184.324 21.75 184.515 21.829 184.655 21.9697C184.796 22.1103 184.875 22.3011 184.875 22.5C184.875 22.6989 184.796 22.8897 184.655 23.0303C184.515 23.171 184.324 23.25 184.125 23.25C183.33 23.2475 182.568 22.9307 182.006 22.3686C181.444 21.8065 181.127 21.0449 181.125 20.25V16.5H178.875V20.25C178.873 21.0449 178.556 21.8065 177.994 22.3686C177.432 22.9307 176.67 23.2475 175.875 23.25C175.676 23.25 175.485 23.171 175.345 23.0303C175.204 22.8897 175.125 22.6989 175.125 22.5C175.125 22.3011 175.204 22.1103 175.345 21.9697C175.485 21.829 175.676 21.75 175.875 21.75C176.273 21.75 176.654 21.592 176.936 21.3107C177.217 21.0294 177.375 20.6478 177.375 20.25V16.5H176.25C175.852 16.5 175.471 16.658 175.189 16.9393C174.908 17.2206 174.75 17.6022 174.75 18V18.75C174.748 19.5449 174.431 20.3065 173.869 20.8686C173.307 21.4307 172.545 21.7475 171.75 21.75C171.551 21.75 171.36 21.671 171.22 21.5303C171.079 21.3897 171 21.1989 171 21C171 20.8011 171.079 20.6103 171.22 20.4697C171.36 20.329 171.551 20.25 171.75 20.25C172.148 20.25 172.529 20.092 172.811 19.8107C173.092 19.5294 173.25 19.1478 173.25 18.75V18C173.251 17.4956 173.378 16.9995 173.62 16.5572C173.863 16.1149 174.213 15.7406 174.638 15.4688C173.975 14.9828 173.436 14.3477 173.065 13.6147C172.693 12.8818 172.5 12.0717 172.5 11.25V10.5C172.509 9.56839 172.758 8.6548 173.222 7.84688C172.993 7.10687 172.92 6.32759 173.007 5.55801C173.095 4.78842 173.34 4.04519 173.728 3.375C173.792 3.26007 173.886 3.16457 174 3.09857C174.114 3.03257 174.243 2.99852 174.375 3C175.249 2.9978 176.111 3.20016 176.892 3.59086C177.673 3.98157 178.353 4.54977 178.875 5.25H181.125C181.647 4.54977 182.327 3.98157 183.108 3.59086C183.889 3.20016 184.751 2.9978 185.625 3C185.757 2.99852 185.886 3.03257 186 3.09857C186.114 3.16457 186.208 3.26007 186.272 3.375C186.66 4.04519 186.905 4.78842 186.993 5.55801C187.08 6.32759 187.007 7.10687 186.778 7.84688C187.242 8.6548 187.491 9.56839 187.5 10.5V11.25C187.5 12.0717 187.307 12.8818 186.935 13.6147C186.564 14.3477 186.025 14.9828 185.362 15.4688C185.787 15.7406 186.137 16.1149 186.38 16.5572C186.622 16.9995 186.749 17.4956 186.75 18V18.75C186.75 19.1478 186.908 19.5294 187.189 19.8107C187.471 20.092 187.852 20.25 188.25 20.25C188.449 20.25 188.64 20.329 188.78 20.4697C188.921 20.6103 189 20.8011 189 21Z" fill="#292929"/>
</g>
<g clip-path="url(#clip4_7_703)">
<path d="M243.875 2.625H228.125C227.727 2.625 227.346 2.78304 227.064 3.06434C226.783 3.34564 226.625 3.72718 226.625 4.125V19.875C226.625 20.2728 226.783 20.6544 227.064 20.9357C227.346 21.217 227.727 21.375 228.125 21.375H243.875C244.273 21.375 244.654 21.217 244.936 20.9357C245.217 20.6544 245.375 20.2728 245.375 19.875V4.125C245.375 3.72718 245.217 3.34564 244.936 3.06434C244.654 2.78304 244.273 2.625 243.875 2.625ZM233 16.5C233 16.6989 232.921 16.8897 232.78 17.0303C232.64 17.171 232.449 17.25 232.25 17.25C232.051 17.25 231.86 17.171 231.72 17.0303C231.579 16.8897 231.5 16.6989 231.5 16.5V10.5C231.5 10.3011 231.579 10.1103 231.72 9.96967C231.86 9.82902 232.051 9.75 232.25 9.75C232.449 9.75 232.64 9.82902 232.78 9.96967C232.921 10.1103 233 10.3011 233 10.5V16.5ZM232.25 8.625C232.027 8.625 231.81 8.55902 231.625 8.4354C231.44 8.31179 231.296 8.13609 231.211 7.93052C231.125 7.72495 231.103 7.49875 231.147 7.28052C231.19 7.06229 231.297 6.86184 231.455 6.7045C231.612 6.54717 231.812 6.44002 232.031 6.39662C232.249 6.35321 232.475 6.37549 232.681 6.46064C232.886 6.54578 233.062 6.68998 233.185 6.87498C233.309 7.05999 233.375 7.2775 233.375 7.5C233.375 7.79837 233.256 8.08452 233.045 8.2955C232.835 8.50647 232.548 8.625 232.25 8.625ZM241.25 16.5C241.25 16.6989 241.171 16.8897 241.03 17.0303C240.89 17.171 240.699 17.25 240.5 17.25C240.301 17.25 240.11 17.171 239.97 17.0303C239.829 16.8897 239.75 16.6989 239.75 16.5V13.125C239.75 12.6277 239.552 12.1508 239.201 11.7992C238.849 11.4475 238.372 11.25 237.875 11.25C237.378 11.25 236.901 11.4475 236.549 11.7992C236.198 12.1508 236 12.6277 236 13.125V16.5C236 16.6989 235.921 16.8897 235.78 17.0303C235.64 17.171 235.449 17.25 235.25 17.25C235.051 17.25 234.86 17.171 234.72 17.0303C234.579 16.8897 234.5 16.6989 234.5 16.5V10.5C234.499 10.3154 234.567 10.1371 234.69 9.99926C234.812 9.86139 234.982 9.7736 235.165 9.75271C235.348 9.73182 235.533 9.77928 235.684 9.88603C235.834 9.99277 235.94 10.1513 235.981 10.3312C236.489 9.98723 237.08 9.78795 237.693 9.75481C238.305 9.72166 238.914 9.85591 239.456 10.1431C239.998 10.4303 240.451 10.8597 240.767 11.385C241.083 11.9104 241.25 12.5119 241.25 13.125V16.5Z" fill="#292929"/>
</g>
<defs>
<clipPath id="clip0_7_703">
<rect width="24" height="24" fill="white"/>
</clipPath>
<clipPath id="clip1_7_703">
<rect width="24" height="24" fill="white" transform="translate(56)"/>
</clipPath>
<clipPath id="clip2_7_703">
<rect width="24" height="24" fill="white" transform="translate(112)"/>
</clipPath>
<clipPath id="clip3_7_703">
<rect width="24" height="24" fill="white" transform="translate(168)"/>
</clipPath>
<clipPath id="clip4_7_703">
<rect width="24" height="24" fill="white" transform="translate(224)"/>
</clipPath>
</defs>
</svg>
