<svg width="116" height="34" viewBox="0 0 116 34" fill="none" xmlns="http://www.w3.org/2000/svg">
<g clip-path="url(#clip0_14_3374)">
<path d="M5.59524 26L1.38501 12.7831H4.95571L8.02012 23.5485H8.49977L11.5642 12.7831H15.1349L10.9247 26H5.59524ZM18.8616 31.3294V28.3982H26.0563C26.5537 28.3982 26.8024 28.1318 26.8024 27.5988V24.2679H26.3227C26.1806 24.5699 25.9586 24.8719 25.6566 25.1739C25.3546 25.4759 24.946 25.7246 24.4308 25.9201C23.9156 26.1155 23.2583 26.2132 22.4589 26.2132C21.4286 26.2132 20.5226 25.9822 19.7409 25.5204C18.977 25.0407 18.3819 24.3834 17.9556 23.5485C17.5292 22.7135 17.316 21.7542 17.316 20.6706V12.7831H20.6736V20.4041C20.6736 21.3989 20.9134 22.1451 21.393 22.6425C21.8904 23.1399 22.5921 23.3886 23.4981 23.3886C24.5285 23.3886 25.3279 23.0511 25.8964 22.376C26.4648 21.6832 26.7491 20.7239 26.7491 19.4981V12.7831H30.1066V28.3449C30.1066 29.2509 29.8401 29.9704 29.3072 30.5034C28.7743 31.0541 28.0637 31.3294 27.1754 31.3294H18.8616ZM39.3321 26.3731C37.6089 26.3731 36.1966 26 35.0952 25.2539C33.9938 24.5078 33.3276 23.4419 33.0967 22.0562L36.1878 21.2568C36.3121 21.8786 36.5164 22.3671 36.8006 22.7224C37.1026 23.0777 37.4668 23.3353 37.8932 23.4952C38.3373 23.6373 38.8169 23.7084 39.3321 23.7084C40.1138 23.7084 40.6911 23.5751 41.0642 23.3086C41.4372 23.0244 41.6238 22.678 41.6238 22.2694C41.6238 21.8608 41.4461 21.5499 41.0908 21.3368C40.7355 21.1058 40.167 20.9193 39.3854 20.7772L38.6393 20.6439C37.7155 20.4663 36.8717 20.2265 36.1078 19.9245C35.3439 19.6047 34.7311 19.1695 34.2692 18.6188C33.8073 18.0681 33.5763 17.3575 33.5763 16.487C33.5763 15.1724 34.056 14.1687 35.0153 13.4759C35.9746 12.7653 37.2359 12.41 38.7992 12.41C40.2736 12.41 41.4994 12.7387 42.4765 13.3959C43.4535 14.0532 44.093 14.9148 44.395 15.9807L41.2773 16.94C41.1352 16.2649 40.8421 15.7853 40.398 15.5011C39.9716 15.2168 39.4387 15.0747 38.7992 15.0747C38.1596 15.0747 37.6711 15.1902 37.3336 15.4211C36.9961 15.6343 36.8273 15.9363 36.8273 16.3271C36.8273 16.7535 37.0049 17.0732 37.3602 17.2864C37.7155 17.4818 38.1952 17.6328 38.7992 17.7394L39.5453 17.8727C40.5401 18.0503 41.4372 18.2901 42.2366 18.5921C43.0538 18.8764 43.6933 19.2938 44.1552 19.8445C44.6349 20.3775 44.8747 21.1058 44.8747 22.0296C44.8747 23.4152 44.3684 24.49 43.3558 25.2539C42.361 26 41.0198 26.3731 39.3321 26.3731ZM47.8169 26V7.34708H51.1744V14.4085H51.6541C51.7962 14.1243 52.0183 13.8401 52.3202 13.5558C52.6222 13.2716 53.022 13.0407 53.5194 12.863C54.0345 12.6676 54.683 12.5699 55.4646 12.5699C56.495 12.5699 57.3921 12.8097 58.156 13.2894C58.9376 13.7512 59.5416 14.3997 59.968 15.2346C60.3943 16.0518 60.6075 17.0111 60.6075 18.1125V26H57.25V18.3789C57.25 17.3841 57.0012 16.638 56.5038 16.1406C56.0242 15.6432 55.3314 15.3945 54.4254 15.3945C53.395 15.3945 52.5956 15.7409 52.0271 16.4337C51.4587 17.1088 51.1744 18.0592 51.1744 19.2849V26H47.8169ZM64.2371 26V12.7831H67.5413V14.5151H68.021C68.2342 14.0532 68.6339 13.618 69.2201 13.2094C69.8063 12.7831 70.6946 12.5699 71.8848 12.5699C72.9151 12.5699 73.8123 12.8097 74.5761 13.2894C75.3578 13.7512 75.9618 14.3997 76.3881 15.2346C76.8145 16.0518 77.0277 17.0111 77.0277 18.1125V26H73.6701V18.3789C73.6701 17.3841 73.4214 16.638 72.924 16.1406C72.4444 15.6432 71.7515 15.3945 70.8456 15.3945C69.8151 15.3945 69.0158 15.7409 68.4473 16.4337C67.8789 17.1088 67.5946 18.0592 67.5946 19.2849V26H64.2371ZM84.7609 26.3731C83.8194 26.3731 82.9756 26.2132 82.2295 25.8934C81.4834 25.5559 80.8882 25.0762 80.4441 24.4545C80.0178 23.8149 79.8046 23.0422 79.8046 22.1362C79.8046 21.2302 80.0178 20.4752 80.4441 19.8712C80.8882 19.2494 81.4922 18.7875 82.2561 18.4855C83.0378 18.1658 83.926 18.0059 84.9208 18.0059H88.5448V17.2598C88.5448 16.638 88.3494 16.1317 87.9586 15.7409C87.5678 15.3323 86.946 15.128 86.0933 15.128C85.2583 15.128 84.6366 15.3234 84.228 15.7142C83.8194 16.0873 83.5528 16.5758 83.4286 17.1798L80.3375 16.1406C80.5507 15.4655 80.8882 14.8527 81.3501 14.3019C81.8298 13.7335 82.4604 13.2805 83.2421 12.9429C84.0415 12.5877 85.0096 12.41 86.1466 12.41C87.8875 12.41 89.2643 12.8452 90.2769 13.7157C91.2895 14.5862 91.7958 15.8475 91.7958 17.4996V22.4293C91.7958 22.9622 92.0445 23.2287 92.5419 23.2287H93.6078V26H91.3694C90.7121 26 90.1702 25.8401 89.7439 25.5204C89.3176 25.2006 89.1044 24.7742 89.1044 24.2413V24.2146H88.5981C88.5271 24.4278 88.3672 24.7121 88.1185 25.0674C87.8698 25.4049 87.4789 25.7069 86.946 25.9734C86.4131 26.2398 85.6847 26.3731 84.7609 26.3731ZM85.3472 23.6551C86.2887 23.6551 87.0526 23.3975 87.6388 22.8823C88.2428 22.3494 88.5448 21.6476 88.5448 20.7772V20.5107H85.1606C84.5389 20.5107 84.0503 20.6439 83.6951 20.9104C83.3398 21.1769 83.1621 21.5499 83.1621 22.0296C83.1621 22.5092 83.3486 22.9001 83.7217 23.2021C84.0948 23.5041 84.6366 23.6551 85.3472 23.6551ZM98.0793 26L93.869 12.7831H97.4397L100.504 23.5485H100.984L104.048 12.7831H107.619L103.409 26H98.0793Z" fill="#292929"/>
<path d="M111.953 26.1345C113.86 26.1345 115.406 24.5888 115.406 22.682C115.406 20.7752 113.86 19.2295 111.953 19.2295C110.046 19.2295 108.5 20.7752 108.5 22.682C108.5 24.5888 110.046 26.1345 111.953 26.1345Z" fill="#43D6B5"/>
</g>
<defs>
<clipPath id="clip0_14_3374">
<rect width="115" height="34" fill="white" transform="translate(0.5)"/>
</clipPath>
</defs>
</svg>
